<mxfile host="Electron" agent="Mozilla/5.0 (Windows NT 10.0; Win64; x64) AppleWebKit/537.36 (KHTML, like Gecko) draw.io/24.7.17 Chrome/128.0.6613.36 Electron/32.0.1 Safari/537.36" version="24.7.17">
  <diagram name="Page-1" id="CduF5v1Zuo2oVkkkP87r">
    <mxGraphModel dx="1434" dy="836" grid="1" gridSize="10" guides="1" tooltips="1" connect="1" arrows="1" fold="1" page="1" pageScale="1" pageWidth="1169" pageHeight="827" math="0" shadow="0">
      <root>
        <mxCell id="0" />
        <mxCell id="1" parent="0" />
        <mxCell id="3RLwauTY6Jb0oVxJC-lx-28" style="edgeStyle=orthogonalEdgeStyle;rounded=0;orthogonalLoop=1;jettySize=auto;html=1;entryX=0.5;entryY=0;entryDx=0;entryDy=0;" edge="1" parent="1" source="3RLwauTY6Jb0oVxJC-lx-1" target="3RLwauTY6Jb0oVxJC-lx-4">
          <mxGeometry relative="1" as="geometry">
            <Array as="points">
              <mxPoint x="130" y="405" />
              <mxPoint x="460" y="405" />
            </Array>
          </mxGeometry>
        </mxCell>
        <mxCell id="3RLwauTY6Jb0oVxJC-lx-1" value="PySide6" style="shape=process;whiteSpace=wrap;html=1;backgroundOutline=1;fillColor=#ffcd28;gradientColor=#ffa500;strokeColor=#d79b00;" vertex="1" parent="1">
          <mxGeometry x="40" y="500" width="120" height="60" as="geometry" />
        </mxCell>
        <mxCell id="3RLwauTY6Jb0oVxJC-lx-31" value="" style="edgeStyle=orthogonalEdgeStyle;rounded=0;orthogonalLoop=1;jettySize=auto;html=1;" edge="1" parent="1" source="3RLwauTY6Jb0oVxJC-lx-2" target="3RLwauTY6Jb0oVxJC-lx-3">
          <mxGeometry relative="1" as="geometry" />
        </mxCell>
        <mxCell id="3RLwauTY6Jb0oVxJC-lx-2" value="psycopg2" style="shape=process;whiteSpace=wrap;html=1;backgroundOutline=1;fillColor=#dae8fc;gradientColor=#7ea6e0;strokeColor=#6c8ebf;" vertex="1" parent="1">
          <mxGeometry x="40" y="580" width="120" height="60" as="geometry" />
        </mxCell>
        <mxCell id="3RLwauTY6Jb0oVxJC-lx-3" value="dbOperations" style="shape=document;whiteSpace=wrap;html=1;boundedLbl=1;fillColor=#dae8fc;gradientColor=#7ea6e0;strokeColor=#6c8ebf;" vertex="1" parent="1">
          <mxGeometry x="220" y="580" width="120" height="60" as="geometry" />
        </mxCell>
        <mxCell id="3RLwauTY6Jb0oVxJC-lx-4" value="settingsDialog_ui.py" style="shape=document;whiteSpace=wrap;html=1;boundedLbl=1;fillColor=#ffcd28;gradientColor=#ffa500;strokeColor=#d79b00;" vertex="1" parent="1">
          <mxGeometry x="400" y="425" width="120" height="70" as="geometry" />
        </mxCell>
        <mxCell id="3RLwauTY6Jb0oVxJC-lx-20" style="edgeStyle=orthogonalEdgeStyle;rounded=0;orthogonalLoop=1;jettySize=auto;html=1;" edge="1" parent="1" source="3RLwauTY6Jb0oVxJC-lx-5" target="3RLwauTY6Jb0oVxJC-lx-6">
          <mxGeometry relative="1" as="geometry" />
        </mxCell>
        <mxCell id="3RLwauTY6Jb0oVxJC-lx-5" value="administrative_ui.py" style="shape=document;whiteSpace=wrap;html=1;boundedLbl=1;fillColor=#ffcd28;gradientColor=#ffa500;strokeColor=#d79b00;" vertex="1" parent="1">
          <mxGeometry x="400" y="325" width="120" height="70" as="geometry" />
        </mxCell>
        <mxCell id="3RLwauTY6Jb0oVxJC-lx-6" value="administrative.py" style="shape=document;whiteSpace=wrap;html=1;boundedLbl=1;fillColor=#fff2cc;gradientColor=#ffd966;strokeColor=#d6b656;" vertex="1" parent="1">
          <mxGeometry x="560" y="310" width="120" height="76" as="geometry" />
        </mxCell>
        <mxCell id="3RLwauTY6Jb0oVxJC-lx-21" style="edgeStyle=orthogonalEdgeStyle;rounded=0;orthogonalLoop=1;jettySize=auto;html=1;entryX=0;entryY=0.5;entryDx=0;entryDy=0;" edge="1" parent="1" source="3RLwauTY6Jb0oVxJC-lx-7" target="3RLwauTY6Jb0oVxJC-lx-5">
          <mxGeometry relative="1" as="geometry" />
        </mxCell>
        <mxCell id="3RLwauTY6Jb0oVxJC-lx-7" value="administrative.ui" style="shape=note;whiteSpace=wrap;html=1;backgroundOutline=1;darkOpacity=0.05;fillColor=#ffcd28;gradientColor=#ffa500;strokeColor=#d79b00;" vertex="1" parent="1">
          <mxGeometry x="190" y="330" width="150" height="60" as="geometry" />
        </mxCell>
        <mxCell id="3RLwauTY6Jb0oVxJC-lx-27" value="" style="edgeStyle=orthogonalEdgeStyle;rounded=0;orthogonalLoop=1;jettySize=auto;html=1;" edge="1" parent="1" source="3RLwauTY6Jb0oVxJC-lx-8" target="3RLwauTY6Jb0oVxJC-lx-4">
          <mxGeometry relative="1" as="geometry" />
        </mxCell>
        <mxCell id="3RLwauTY6Jb0oVxJC-lx-8" value="settingsDialog.ui" style="shape=note;whiteSpace=wrap;html=1;backgroundOutline=1;darkOpacity=0.05;fillColor=#ffcd28;gradientColor=#ffa500;strokeColor=#d79b00;" vertex="1" parent="1">
          <mxGeometry x="190" y="430" width="150" height="60" as="geometry" />
        </mxCell>
        <mxCell id="3RLwauTY6Jb0oVxJC-lx-9" value="sys" style="rounded=0;whiteSpace=wrap;html=1;fillColor=#f5f5f5;strokeColor=#666666;gradientColor=#b3b3b3;" vertex="1" parent="1">
          <mxGeometry x="40" y="10" width="120" height="60" as="geometry" />
        </mxCell>
        <mxCell id="3RLwauTY6Jb0oVxJC-lx-16" style="edgeStyle=orthogonalEdgeStyle;rounded=0;orthogonalLoop=1;jettySize=auto;html=1;entryX=0.75;entryY=0;entryDx=0;entryDy=0;" edge="1" parent="1" source="3RLwauTY6Jb0oVxJC-lx-10" target="3RLwauTY6Jb0oVxJC-lx-6">
          <mxGeometry relative="1" as="geometry" />
        </mxCell>
        <mxCell id="3RLwauTY6Jb0oVxJC-lx-10" value="os" style="rounded=0;whiteSpace=wrap;html=1;fillColor=#f5f5f5;gradientColor=#b3b3b3;strokeColor=#666666;" vertex="1" parent="1">
          <mxGeometry x="40" y="80" width="120" height="60" as="geometry" />
        </mxCell>
        <mxCell id="3RLwauTY6Jb0oVxJC-lx-17" style="edgeStyle=orthogonalEdgeStyle;rounded=0;orthogonalLoop=1;jettySize=auto;html=1;entryX=0.5;entryY=0;entryDx=0;entryDy=0;" edge="1" parent="1" source="3RLwauTY6Jb0oVxJC-lx-11" target="3RLwauTY6Jb0oVxJC-lx-6">
          <mxGeometry relative="1" as="geometry" />
        </mxCell>
        <mxCell id="3RLwauTY6Jb0oVxJC-lx-11" value="json" style="rounded=0;whiteSpace=wrap;html=1;fillColor=#f5f5f5;gradientColor=#b3b3b3;strokeColor=#666666;" vertex="1" parent="1">
          <mxGeometry x="40" y="150" width="120" height="60" as="geometry" />
        </mxCell>
        <mxCell id="3RLwauTY6Jb0oVxJC-lx-18" style="edgeStyle=orthogonalEdgeStyle;rounded=0;orthogonalLoop=1;jettySize=auto;html=1;" edge="1" parent="1" source="3RLwauTY6Jb0oVxJC-lx-12" target="3RLwauTY6Jb0oVxJC-lx-13">
          <mxGeometry relative="1" as="geometry" />
        </mxCell>
        <mxCell id="3RLwauTY6Jb0oVxJC-lx-12" value="cryptograpgy" style="shape=process;whiteSpace=wrap;html=1;backgroundOutline=1;fillColor=#f8cecc;gradientColor=#ea6b66;strokeColor=#b85450;" vertex="1" parent="1">
          <mxGeometry x="40" y="220" width="120" height="60" as="geometry" />
        </mxCell>
        <mxCell id="3RLwauTY6Jb0oVxJC-lx-13" value="cipher.py&lt;div&gt;&lt;br&gt;&lt;/div&gt;" style="shape=document;whiteSpace=wrap;html=1;boundedLbl=1;fillColor=#f8cecc;gradientColor=#ea6b66;strokeColor=#b85450;" vertex="1" parent="1">
          <mxGeometry x="380" y="220" width="120" height="60" as="geometry" />
        </mxCell>
        <mxCell id="3RLwauTY6Jb0oVxJC-lx-15" style="edgeStyle=orthogonalEdgeStyle;rounded=0;orthogonalLoop=1;jettySize=auto;html=1;entryX=1.008;entryY=0.421;entryDx=0;entryDy=0;entryPerimeter=0;" edge="1" parent="1" source="3RLwauTY6Jb0oVxJC-lx-9" target="3RLwauTY6Jb0oVxJC-lx-6">
          <mxGeometry relative="1" as="geometry" />
        </mxCell>
        <mxCell id="3RLwauTY6Jb0oVxJC-lx-19" style="edgeStyle=orthogonalEdgeStyle;rounded=0;orthogonalLoop=1;jettySize=auto;html=1;entryX=0.325;entryY=0;entryDx=0;entryDy=0;entryPerimeter=0;" edge="1" parent="1" source="3RLwauTY6Jb0oVxJC-lx-13" target="3RLwauTY6Jb0oVxJC-lx-6">
          <mxGeometry relative="1" as="geometry" />
        </mxCell>
        <mxCell id="3RLwauTY6Jb0oVxJC-lx-23" style="edgeStyle=orthogonalEdgeStyle;rounded=0;orthogonalLoop=1;jettySize=auto;html=1;entryX=0.408;entryY=0.014;entryDx=0;entryDy=0;entryPerimeter=0;" edge="1" parent="1" source="3RLwauTY6Jb0oVxJC-lx-1" target="3RLwauTY6Jb0oVxJC-lx-5">
          <mxGeometry relative="1" as="geometry">
            <Array as="points">
              <mxPoint x="70" y="305" />
              <mxPoint x="439" y="305" />
            </Array>
          </mxGeometry>
        </mxCell>
        <mxCell id="3RLwauTY6Jb0oVxJC-lx-29" style="edgeStyle=orthogonalEdgeStyle;rounded=0;orthogonalLoop=1;jettySize=auto;html=1;entryX=0.242;entryY=0.947;entryDx=0;entryDy=0;entryPerimeter=0;" edge="1" parent="1" source="3RLwauTY6Jb0oVxJC-lx-4" target="3RLwauTY6Jb0oVxJC-lx-6">
          <mxGeometry relative="1" as="geometry" />
        </mxCell>
        <mxCell id="3RLwauTY6Jb0oVxJC-lx-33" style="edgeStyle=orthogonalEdgeStyle;rounded=0;orthogonalLoop=1;jettySize=auto;html=1;entryX=0.875;entryY=0.724;entryDx=0;entryDy=0;entryPerimeter=0;" edge="1" parent="1" source="3RLwauTY6Jb0oVxJC-lx-3" target="3RLwauTY6Jb0oVxJC-lx-6">
          <mxGeometry relative="1" as="geometry" />
        </mxCell>
        <mxCell id="3RLwauTY6Jb0oVxJC-lx-38" style="edgeStyle=orthogonalEdgeStyle;rounded=0;orthogonalLoop=1;jettySize=auto;html=1;entryX=0.525;entryY=0.868;entryDx=0;entryDy=0;entryPerimeter=0;" edge="1" parent="1" source="3RLwauTY6Jb0oVxJC-lx-1" target="3RLwauTY6Jb0oVxJC-lx-6">
          <mxGeometry relative="1" as="geometry" />
        </mxCell>
      </root>
    </mxGraphModel>
  </diagram>
</mxfile>
